<svg xmlns="http://www.w3.org/2000/svg" viewBox="0 0 500 500" xml:space="preserve">
  <path fill="#028236" d="m250 339.8-51.4-32.2-9.1-118.5 60.5-32.3.1-54.7-114 61 13.6 172 100.2 63.6z"/>
  <path fill="#028236" d="m250.1 398.7 100.2-63.6 13-171.8-113.2-61.2-.1-59.3 175.6 92.3-25.5 226.8-150.2 95.3z"/>
  <path fill="#029B47" d="m249.9 398.7-100.2-63.6-13.6-172 114-61-.1-59.3-175.6 92.3 25.5 226.8 150 95.3z"/>
  <path fill="#029B47" d="m250 339.8 51.3-32.2 9.2-118.5-60.5-32.3.1-54.7 113.2 61.2-13 171.8-100.2 63.6z"/>
  <path fill="#006837" d="m249.9 172.7-50 27.6 3.7 55.6 46.4 26.5zm.1 109.7-51.4 25.2 7.9 122.2 43.4 27.4z"/>
  <path fill="#0C4C0E" d="m249.9 172.7 48.9 27.6-3 54.6-45.8 27.5zm.1 109.7 51.3 25.2-7.8 121.9-43.6 27.7z"/>
  <path fill="#258C2A" d="m250 226.3 48.8-26-48.9-27.6-50 27.6zm51.2 81.3L250 282.4l-51.4 25.2 51.3 28.1z"/>
  <path fill="#48C14E" d="m136.1 163.1 114-61-.1-59.3-175.6 92.3zm227.2.2-113.2-61.2-.1-59.3 175.6 92.3zM198.6 307.6l-48.9 27.5 53.2 33.8zm102.7 0 49 27.5-52.9 33.6z"/>
</svg>
